<svg xmlns="http://www.w3.org/2000/svg" width="39.152" height="41.213" viewBox="0 0 39.152 41.213"><path d="M26.241,2.314A10.431,10.431,0,0,0,22.576,2a10.431,10.431,0,0,0-3.665.314,4.137,4.137,0,0,0-2.247,2.23,5.045,5.045,0,0,0-.3,1.779,3.328,3.328,0,0,1-1.641,2.788,3.38,3.38,0,0,1-3.253.016,5.142,5.142,0,0,0-1.7-.634,4.176,4.176,0,0,0-3.07.816A10.281,10.281,0,0,0,4.595,12.3,10.24,10.24,0,0,0,3.036,15.61a4.1,4.1,0,0,0,.823,3.047,5.108,5.108,0,0,0,1.4,1.145,3.245,3.245,0,0,1,0,5.609,5.112,5.112,0,0,0-1.4,1.145A4.1,4.1,0,0,0,3.036,29.6,10.241,10.241,0,0,0,4.595,32.91,10.278,10.278,0,0,0,6.7,35.9a4.176,4.176,0,0,0,3.07.816,5.144,5.144,0,0,0,1.7-.634,3.38,3.38,0,0,1,3.253.016,3.328,3.328,0,0,1,1.641,2.788,5.045,5.045,0,0,0,.3,1.779,4.137,4.137,0,0,0,2.247,2.23,10.434,10.434,0,0,0,3.665.314,10.434,10.434,0,0,0,3.665-.314,4.137,4.137,0,0,0,2.247-2.23,5.043,5.043,0,0,0,.3-1.779,3.328,3.328,0,0,1,1.64-2.788,3.38,3.38,0,0,1,3.253-.016,5.142,5.142,0,0,0,1.7.634,4.175,4.175,0,0,0,3.07-.816,10.277,10.277,0,0,0,2.107-2.994A10.244,10.244,0,0,0,42.116,29.6a4.1,4.1,0,0,0-.823-3.047,5.11,5.11,0,0,0-1.4-1.145,3.244,3.244,0,0,1,0-5.608,5.109,5.109,0,0,0,1.4-1.145,4.1,4.1,0,0,0,.823-3.047A10.245,10.245,0,0,0,40.558,12.3,10.278,10.278,0,0,0,38.451,9.31a4.176,4.176,0,0,0-3.07-.816,5.14,5.14,0,0,0-1.7.634,3.38,3.38,0,0,1-3.253-.016,3.328,3.328,0,0,1-1.641-2.788,5.043,5.043,0,0,0-.3-1.779A4.137,4.137,0,0,0,26.241,2.314ZM22.576,28.788a6.182,6.182,0,1,0-6.229-6.182A6.205,6.205,0,0,0,22.576,28.788Z" transform="translate(-3 -2)" fill-rule="evenodd"/></svg>